<svg width="48" height="44" viewBox="0 0 48 44" fill="none" xmlns="http://www.w3.org/2000/svg">
<path d="M42 23.4483C41.6854 26.569 40.4077 29.5431 38.3165 32.0224C36.2253 34.5018 33.407 36.384 30.1914 37.4487C26.9758 38.5134 23.496 38.7166 20.159 38.0345C16.822 37.3524 13.766 35.8133 11.3485 33.5973C8.93091 31.3812 7.25188 28.5798 6.50782 25.5209C5.76375 22.462 5.98543 19.2722 7.14692 16.3245C8.30841 13.3769 10.3617 10.7935 13.0664 8.87655C15.7712 6.95959 19.0156 5.78839 22.42 5.5C20.4268 7.97182 19.4677 11.0173 19.7171 14.0826C19.9664 17.1479 21.4077 20.0293 23.7788 22.2028C26.1499 24.3763 29.2932 25.6974 32.6372 25.926C35.9811 26.1546 39.3035 25.2754 42 23.4483Z" fill="black" stroke="#1E1E1E" stroke-width="4" stroke-linecap="round" stroke-linejoin="round"/>
</svg>
