<svg width="75" height="23" viewBox="0 0 75 23" fill="none" xmlns="http://www.w3.org/2000/svg">
<path d="M74.4121 20.368L74.2921 22C73.7521 22 73.2961 22 73.1161 22C71.4721 22 70.7521 21.016 70.7521 19.612L70.7401 13H72.7681V19.108C72.7681 20.008 72.6841 20.644 73.3441 20.644C73.5841 20.644 73.9201 20.56 74.4121 20.368Z" fill="white"/>
<path d="M65.1056 19.432C66.6056 19.12 67.5296 18.604 67.7456 17.872C67.9496 17.2 67.5056 16.804 66.8096 16.804C65.7416 16.804 65.0696 17.716 65.0696 19C65.0696 19.144 65.0816 19.288 65.1056 19.432ZM63.0776 19C63.0776 17.2 64.3976 15.796 66.7256 15.796C68.0816 15.796 69.4496 16.42 69.3296 17.56C69.1736 18.952 66.5336 19.36 65.1296 19.588C65.2736 20.452 65.7896 21.184 66.8216 21.184C67.5416 21.184 67.8416 20.692 67.6976 19.984L69.7016 20.104C69.1376 22.012 67.5416 22.18 66.5696 22.18C63.9296 22.18 63.0776 20.368 63.0776 19Z" fill="white"/>
<path d="M59.9317 14.392C59.9317 13.816 60.3637 13.42 61.0717 13.42C61.7917 13.42 62.1637 13.816 62.1637 14.392C62.1637 15.004 61.7917 15.388 61.0717 15.388C60.3637 15.388 59.9317 15.004 59.9317 14.392ZM62.0557 22H60.0277V16H62.0557V22Z" fill="white"/>
<path d="M59.3091 15.832V17.164C59.0451 17.044 58.6611 16.996 58.3251 16.996C57.3531 16.996 56.6211 17.656 56.6091 19.276C56.5971 19.516 56.5971 21.724 56.5971 22H54.5331V16H56.3811L56.3571 18.796H56.4651C56.5131 17.008 57.1851 15.796 58.4811 15.796C58.6491 15.796 59.1651 15.808 59.3091 15.832Z" fill="white"/>
<path d="M50.6282 15.796C52.0202 15.796 53.4122 16.924 53.4122 18.976C53.4122 21.112 52.1642 22.156 50.5922 22.156C49.5362 22.156 48.6122 21.76 48.0842 20.536C48.0842 21.1 48.0842 21.436 48.0842 22H46.2362V13H48.0362L48.0242 19.924H48.0842C48.2042 16.504 49.4282 15.796 50.6282 15.796ZM48.2882 20.26C48.4922 20.872 49.1162 21.148 49.7882 21.148C50.7962 21.148 51.4082 20.344 51.4082 18.952C51.4082 17.524 50.8922 16.756 49.9442 16.756C49.2482 16.756 48.4202 17.212 48.2882 20.26Z" fill="white"/>
<path d="M41.893 15.796C43.573 15.796 44.929 16.552 44.929 18.268V22H42.913V18.796C41.701 19.216 42.577 22.18 40.141 22.18C38.965 22.18 38.245 21.496 38.245 20.464C38.245 18.244 41.581 18.46 42.913 18.484V18.364C42.913 17.764 42.985 16.84 41.569 16.84C40.597 16.84 40.237 17.344 40.465 18.172L38.773 17.776C38.881 15.76 41.257 15.796 41.893 15.796ZM42.553 18.664C41.413 18.652 40.141 18.724 40.141 19.672C40.141 20.128 40.441 20.488 40.981 20.488C41.941 20.488 41.761 19.18 42.553 18.76V18.664Z" fill="white"/>
<path d="M32.0987 18.1V17.8H37.2707V22H36.9227L35.3147 18.1H35.0867C35.0387 20.776 33.9347 22.18 32.0507 22.18C29.7827 22.18 28.5227 20.296 28.5227 17.512C28.5227 14.776 30.3347 12.82 33.2747 12.82C35.0027 12.82 36.4067 13.456 36.9707 14.632L35.0507 15.556C35.1227 14.488 34.1147 13.804 33.2387 13.804C31.6307 13.804 30.5987 15.268 30.5987 17.26C30.5987 19.252 31.4147 20.608 32.8187 20.608C34.1507 20.608 34.7507 19.636 34.7867 18.1H32.0987Z" fill="white"/>
<path d="M44.8127 3H45.1127L42.4247 11.112H42.1247L42.8207 9H41.8607L39.2327 3H41.2487L43.2287 7.752L44.8127 3Z" fill="white"/>
<path d="M36.636 9C35.412 9 34.068 8.34001 34.068 6.44401L34.056 3.3H33.108V3H34.068V1.572L35.868 0.492004V3H37.32V3.3H35.868V6.38401C35.868 7.58401 36.168 8.028 36.744 8.028C37.176 8.028 37.44 7.608 37.224 6.9L39.036 7.368C38.508 8.7 37.464 9 36.636 9Z" fill="white"/>
<path d="M30.2998 2.79601C31.9198 2.79601 32.5438 3.54 32.5438 5.328V9.00001H30.5278V5.35201C30.5278 4.32001 30.2638 3.84001 29.4598 3.84001C28.9078 3.84001 27.8158 4.24801 27.8158 9.00001H25.7518V3.00001H27.5998L27.5278 7.75201H27.6358C27.7798 3.24001 29.0638 2.79601 30.2998 2.79601Z" fill="white"/>
<path d="M21.4087 2.796C23.0887 2.796 24.4447 3.552 24.4447 5.268V9H22.4287V5.796C21.2167 6.216 22.0927 9.18 19.6567 9.18C18.4807 9.18 17.7607 8.496 17.7607 7.464C17.7607 5.244 21.0967 5.46 22.4287 5.484V5.364C22.4287 4.764 22.5007 3.84 21.0847 3.84C20.1127 3.84 19.7527 4.344 19.9807 5.172L18.2887 4.776C18.3967 2.76 20.7727 2.796 21.4087 2.796ZM22.0687 5.664C20.9287 5.652 19.6567 5.724 19.6567 6.672C19.6567 7.128 19.9567 7.488 20.4967 7.488C21.4567 7.488 21.2767 6.18 22.0687 5.76V5.664Z" fill="white"/>
<path d="M10.1 5.172C10.1 2.916 12.128 2.808 13.76 2.82C14.552 2.82 15.476 2.436 15.476 1.332H17.384C17.384 3.06 16.28 2.88 15.392 2.928V3.036C16.28 3.3 17.216 3.744 17.216 5.172C17.216 7.272 16.004 7.56 14.324 7.56C13.64 7.56 12.788 7.524 12.164 7.512C11.804 7.5 11.552 7.656 11.552 7.86C11.552 8.34 13.16 8.364 13.856 8.364C16.22 8.364 17.636 8.484 17.636 10.068C17.636 11.7 16.124 11.832 13.856 11.832C11.516 11.832 9.82397 11.748 9.82397 10.104C9.82397 9.168 10.292 8.544 11.768 8.52V8.412C11.324 8.364 11.096 8.028 11.096 7.656C11.096 7.212 11.384 7.008 11.672 6.948V6.84C10.94 6.756 10.1 6.324 10.1 5.172ZM12.2 5.268C12.2 6.144 12.428 6.564 13.772 6.564C14.972 6.564 15.296 6.144 15.296 5.268C15.296 4.392 14.936 3.972 13.76 3.972C12.524 3.972 12.2 4.392 12.2 5.268ZM11.78 10.08C11.78 10.584 12.176 10.74 13.856 10.74C15.5 10.74 15.8 10.548 15.8 10.08C15.8 9.6 15.632 9.444 13.796 9.444C12.128 9.444 11.78 9.504 11.78 10.08Z" fill="white"/>
<path d="M2.904 9H0.816002V0H3.036L6.768 8.604V0H8.844V9H6.636L2.904 0.420001V9Z" fill="white"/>
</svg>
