<svg xmlns="http://www.w3.org/2000/svg" viewBox="0 0 800 500" role="img" aria-label="AgroSmart telemetry dashboard preview">
  <rect width="800" height="500" fill="#edf4ee"/>
  <rect x="52" y="38" width="696" height="424" rx="18" fill="#ffffff" stroke="#d7e2d8"/>
  <rect x="52" y="38" width="696" height="50" rx="18" fill="#243229"/>
  <rect x="52" y="70" width="696" height="18" fill="#243229"/>
  <circle cx="82" cy="63" r="6" fill="#f46d5e"/><circle cx="104" cy="63" r="6" fill="#f1b84b"/><circle cx="126" cy="63" r="6" fill="#58bd7d"/>
  <text x="400" y="67" text-anchor="middle" font-family="Inter, Arial, sans-serif" font-size="12" fill="#c9d6cc">agrosmart.coop/dashboard</text>
  <text x="86" y="138" font-family="Inter, Arial, sans-serif" font-size="25" font-weight="800" fill="#243229">Farm telemetry</text>
  <text x="86" y="164" font-family="Inter, Arial, sans-serif" font-size="13" fill="#66756a">Soil, irrigation, and crop risk signals for field teams.</text>
  <rect x="86" y="202" width="176" height="92" rx="14" fill="#f7faf7" stroke="#d7e2d8"/>
  <text x="110" y="234" font-family="Inter, Arial, sans-serif" font-size="13" fill="#68776b">Soil moisture</text>
  <text x="110" y="270" font-family="Inter, Arial, sans-serif" font-size="34" font-weight="800" fill="#2f7d55">64%</text>
  <rect x="286" y="202" width="176" height="92" rx="14" fill="#f7faf7" stroke="#d7e2d8"/>
  <text x="310" y="234" font-family="Inter, Arial, sans-serif" font-size="13" fill="#68776b">Temperature</text>
  <text x="310" y="270" font-family="Inter, Arial, sans-serif" font-size="34" font-weight="800" fill="#d96f3e">28 C</text>
  <rect x="486" y="202" width="176" height="92" rx="14" fill="#f7faf7" stroke="#d7e2d8"/>
  <text x="510" y="234" font-family="Inter, Arial, sans-serif" font-size="13" fill="#68776b">Irrigation</text>
  <text x="510" y="270" font-family="Inter, Arial, sans-serif" font-size="34" font-weight="800" fill="#243229">OK</text>
  <rect x="86" y="326" width="576" height="100" rx="14" fill="#f7faf7" stroke="#d7e2d8"/>
  <polyline points="120,394 180,372 240,382 300,350 360,362 420,334 480,346 540,318 620,332" fill="none" stroke="#2f7d55" stroke-width="5" stroke-linecap="round" stroke-linejoin="round"/>
  <line x1="120" y1="404" x2="630" y2="404" stroke="#d7e2d8"/>
  <line x1="120" y1="350" x2="630" y2="350" stroke="#d7e2d8"/>
</svg>
